<?xml version="1.0" encoding="UTF-8"?>
<svg version="1.1" xmlns="http://www.w3.org/2000/svg" width="1214" height="1214">
<path d="M0 0 C0.67707315 -0.00282738 1.35414631 -0.00565475 2.05173683 -0.00856781 C5.64557897 -0.0234614 9.23938209 -0.03274888 12.83325195 -0.03710938 C15.74679294 -0.04146348 18.6600327 -0.05524921 21.57348633 -0.078125 C39.43697391 -0.21541823 56.87476459 0.24436506 74.55078125 3.203125 C75.23596832 3.31672363 75.9211554 3.43032227 76.62710571 3.54736328 C80.40148197 4.19281901 84.13267726 4.9671693 87.86328125 5.828125 C88.97098877 6.08118408 90.07869629 6.33424316 91.2199707 6.5949707 C126.14492199 14.89355467 159.59196685 29.93661708 188.55078125 51.203125 C189.13972168 51.63512207 189.72866211 52.06711914 190.33544922 52.51220703 C196.94887883 57.40232773 203.24809999 62.55932816 209.30078125 68.13671875 C211.28524945 69.95925986 213.30864017 71.71096058 215.36328125 73.453125 C225.00281802 81.88284137 233.66788449 91.11907033 241.55078125 101.203125 C242.43085816 102.29412667 243.31243892 103.3839165 244.1953125 104.47265625 C276.4192798 144.4446798 296.47430308 193.27319683 302.55078125 244.203125 C302.64649414 244.96890869 302.74220703 245.73469238 302.84082031 246.52368164 C303.88416922 256.11108581 303.79454143 265.75825284 303.80078125 275.390625 C303.80179337 276.7949881 303.80179337 276.7949881 303.80282593 278.22772217 C303.78621442 292.75549676 303.19091886 306.88456405 300.55078125 321.203125 C300.29337158 322.6569458 300.29337158 322.6569458 300.03076172 324.14013672 C289.69398625 381.42194608 261.78966263 431.91230406 220.98828125 473.015625 C220.125979 473.88727295 219.26367676 474.7589209 218.37524414 475.65698242 C212.40986771 481.59298668 206.15499886 486.9912749 199.55078125 492.203125 C198.88135498 492.73719971 198.21192871 493.27127441 197.5222168 493.8215332 C173.57456085 512.74868907 146.44001291 527.39088551 117.55078125 537.203125 C116.64537598 537.51088867 115.7399707 537.81865234 114.80712891 538.13574219 C83.8269597 548.47867675 52.37972442 552.39350112 19.85351562 552.31665039 C18.14674379 552.31636747 16.43997184 552.3165283 14.73320007 552.3170929 C10.15370413 552.31737678 5.57423503 552.31154689 0.99474525 552.30451894 C-3.81115961 552.29821661 -8.61706527 552.29767621 -13.42297363 552.29649353 C-22.49955906 552.29340032 -31.57613227 552.28521435 -40.65271235 552.27514404 C-50.99629483 552.26392006 -61.33987793 552.2584567 -71.683465 552.25344861 C-92.93872304 552.2430298 -114.19397012 552.22546976 -135.44921875 552.203125 C-135.44460979 553.0654326 -135.44000082 553.92774019 -135.43525219 554.81617832 C-135.32456607 575.85128732 -135.24196187 596.88634574 -135.19015789 617.92168522 C-135.16443644 628.09446266 -135.12940246 638.26704506 -135.07202148 648.43969727 C-135.02200025 657.31186466 -134.98988376 666.1838907 -134.97877628 675.0561952 C-134.97228906 679.74893069 -134.95717034 684.44126201 -134.92056847 689.13386726 C-134.88631225 693.56214826 -134.87622471 697.98986346 -134.88368034 702.41826439 C-134.88231889 704.03261529 -134.87256428 705.64698761 -134.85319138 707.26122284 C-134.6486532 725.20342557 -139.54710696 740.03107953 -152.07421875 753.390625 C-168.00659655 768.52998852 -186.47962992 772.64289486 -207.74609375 772.421875 C-213.99404935 772.25927368 -219.56743833 771.33943204 -225.44921875 769.203125 C-226.2896875 768.93628906 -227.13015625 768.66945313 -227.99609375 768.39453125 C-242.89411211 763.18947825 -252.05677544 752.59508411 -258.96875 738.9609375 C-262.24794197 731.38452439 -262.74541088 723.30601979 -262.71664429 715.15550232 C-262.72344096 713.71510034 -262.72344096 713.71510034 -262.73037493 712.24559933 C-262.74294993 709.05487745 -262.74140302 705.86432777 -262.73974609 702.67358398 C-262.74573576 700.37459598 -262.75254231 698.07560997 -262.76010132 695.77662659 C-262.77772652 689.54899238 -262.78245531 683.32141318 -262.78373289 677.09375644 C-262.78515732 673.19628314 -262.78943252 669.29882369 -262.79472733 665.40135384 C-262.81226491 652.48688572 -262.821569 639.57245645 -262.82006638 626.65797698 C-262.81998647 625.96316635 -262.81990655 625.26835573 -262.81982422 624.55249023 C-262.81974246 623.85681944 -262.8196607 623.16114865 -262.81957646 622.44439692 C-262.81876459 611.18530405 -262.83788121 599.92634528 -262.86610095 588.66729116 C-262.89492608 577.07408366 -262.90827083 565.48094749 -262.9069134 553.88770348 C-262.90640537 547.39211489 -262.91200042 540.89667809 -262.9332695 534.40112114 C-262.95274929 528.2852402 -262.95270995 522.16965428 -262.93823624 516.05376244 C-262.93615891 513.82104813 -262.94078405 511.58831487 -262.95295715 509.35563278 C-263.03669692 492.91980561 -261.5683186 477.90104706 -254.82421875 462.703125 C-254.48503418 461.92179199 -254.14584961 461.14045898 -253.79638672 460.33544922 C-246.25686511 443.45577082 -235.91243702 428.90364131 -223.40234375 415.34375 C-221.82019267 413.60971242 -220.33974994 411.85613118 -218.88671875 410.015625 C-215.69744247 406.33569083 -212.19078036 403.31052362 -208.44921875 400.203125 C-207.93601074 399.76693848 -207.42280273 399.33075195 -206.89404297 398.88134766 C-194.79154971 388.62258002 -182.10210319 380.18157419 -167.32421875 374.265625 C-166.65737061 373.99516357 -165.99052246 373.72470215 -165.3034668 373.44604492 C-152.21851659 368.52847281 -139.16371348 367.76375874 -125.36914062 367.81835938 C-123.60803376 367.81424322 -121.84692963 367.80877624 -120.08583069 367.80207825 C-116.32427154 367.79044401 -112.56285874 367.78783608 -108.80128479 367.79243469 C-102.83941307 367.7993045 -96.8777303 367.78327457 -90.91589355 367.76403809 C-77.18669335 367.72315292 -63.45749936 367.71166247 -49.7282486 367.70050812 C-37.13393483 367.68996999 -24.53971328 367.67304912 -11.94545603 367.63241243 C-6.0328078 367.61417861 -0.12037973 367.61011934 5.79228973 367.61734772 C9.48487414 367.61888124 13.17735062 367.60801325 16.86990547 367.59396935 C18.56647393 367.59000404 20.26306354 367.59102689 21.95962334 367.59774208 C50.0013869 367.70011001 74.17614766 358.89343052 94.55078125 339.203125 C111.09300535 321.79466957 119.50402435 297.97900689 119.55078125 274.203125 C118.79080112 249.51511366 109.18422295 227.40954604 91.55078125 210.203125 C90.74898437 209.39230469 89.9471875 208.58148438 89.12109375 207.74609375 C69.64652637 189.00581334 44.37213733 184.30391036 18.34622192 183.87265015 C-37.72110513 182.86722703 -102.97040221 175.45736537 -144.01171875 132.984375 C-153.12680066 122.58383282 -158.91877896 109.95611821 -160.44921875 96.203125 C-160.53300781 95.501875 -160.61679687 94.800625 -160.703125 94.078125 C-161.63304796 78.23943724 -153.74606549 62.34636028 -143.71875 50.72265625 C-142.96980469 49.89121094 -142.22085938 49.05976563 -141.44921875 48.203125 C-140.83433594 47.50574219 -140.21945312 46.80835938 -139.5859375 46.08984375 C-111.42064374 15.9945941 -64.72590636 5.58503054 -25.44921875 1.203125 C-24.26240005 1.07043213 -24.26240005 1.07043213 -23.05160522 0.93505859 C-15.36305608 0.15557521 -7.7239651 0.02545172 0 0 Z " fill="#00A9E5" transform="translate(586.44921875,220.796875)"/>
<path d="M0 0 C0.67707315 -0.00282738 1.35414631 -0.00565475 2.05173683 -0.00856781 C5.64557897 -0.0234614 9.23938209 -0.03274888 12.83325195 -0.03710938 C15.74679294 -0.04146348 18.6600327 -0.05524921 21.57348633 -0.078125 C39.43697391 -0.21541823 56.87476459 0.24436506 74.55078125 3.203125 C75.23596832 3.31672363 75.9211554 3.43032227 76.62710571 3.54736328 C80.40148197 4.19281901 84.13267726 4.9671693 87.86328125 5.828125 C88.97098877 6.08118408 90.07869629 6.33424316 91.2199707 6.5949707 C131.33371697 16.1264741 182.79354986 36.66248723 210.55078125 69.203125 C210.89989669 70.86655738 211.23006289 72.53398492 211.55078125 74.203125 C212.84709204 77.02923195 214.36088337 79.73219519 215.86328125 82.453125 C219.01759418 88.28378724 221.96177284 94.09803968 224.55078125 100.203125 C225.40075155 102.08003102 226.25515682 103.95493303 227.11328125 105.828125 C228.98171858 109.93180945 230.80475396 114.04591717 232.55078125 118.203125 C232.96328125 119.13125 233.37578125 120.059375 233.80078125 121.015625 C234.04828125 121.7375 234.29578125 122.459375 234.55078125 123.203125 C234.22078125 123.863125 233.89078125 124.523125 233.55078125 125.203125 C234.21078125 125.533125 234.87078125 125.863125 235.55078125 126.203125 C235.88078125 126.863125 236.21078125 127.523125 236.55078125 128.203125 C236.22078125 128.863125 235.89078125 129.523125 235.55078125 130.203125 C236.21078125 130.533125 236.87078125 130.863125 237.55078125 131.203125 C237.22078125 131.863125 236.89078125 132.523125 236.55078125 133.203125 C237.21078125 133.533125 237.87078125 133.863125 238.55078125 134.203125 C238.88411458 136.53645833 239.21744792 138.86979167 239.55078125 141.203125 C240.21078125 141.533125 240.87078125 141.863125 241.55078125 142.203125 C242.73828125 145.640625 242.73828125 145.640625 243.55078125 149.203125 C243.22078125 149.863125 242.89078125 150.523125 242.55078125 151.203125 C243.21078125 151.533125 243.87078125 151.863125 244.55078125 152.203125 C245.23828125 154.140625 245.23828125 154.140625 245.55078125 156.203125 C245.22078125 156.863125 244.89078125 157.523125 244.55078125 158.203125 C245.21078125 158.533125 245.87078125 158.863125 246.55078125 159.203125 C246.22078125 160.193125 245.89078125 161.183125 245.55078125 162.203125 C246.21078125 162.533125 246.87078125 162.863125 247.55078125 163.203125 C247.22078125 164.193125 246.89078125 165.183125 246.55078125 166.203125 C247.21078125 166.533125 247.87078125 166.863125 248.55078125 167.203125 C248.22078125 168.523125 247.89078125 169.843125 247.55078125 171.203125 C248.21078125 171.533125 248.87078125 171.863125 249.55078125 172.203125 C250.17578125 174.765625 250.17578125 174.765625 250.55078125 177.203125 C249.93203125 177.491875 249.31328125 177.780625 248.67578125 178.078125 C246.4175236 179.14032542 246.4175236 179.14032542 244.55078125 181.203125 C243.21744792 181.86979167 241.88411458 182.53645833 240.55078125 183.203125 C239.89078125 183.863125 239.23078125 184.523125 238.55078125 185.203125 C237.21744792 185.86979167 235.88411458 186.53645833 234.55078125 187.203125 C233.89078125 187.863125 233.23078125 188.523125 232.55078125 189.203125 C231.21744792 189.86979167 229.88411458 190.53645833 228.55078125 191.203125 C227.89078125 191.863125 227.23078125 192.523125 226.55078125 193.203125 C225.21744792 193.86979167 223.88411458 194.53645833 222.55078125 195.203125 C221.89078125 195.863125 221.23078125 196.523125 220.55078125 197.203125 C219.21744792 197.86979167 217.88411458 198.53645833 216.55078125 199.203125 C215.89078125 199.863125 215.23078125 200.523125 214.55078125 201.203125 C213.21744792 201.86979167 211.88411458 202.53645833 210.55078125 203.203125 C209.89078125 203.863125 209.23078125 204.523125 208.55078125 205.203125 C205.57681928 206.78501967 202.74820505 208.13731707 199.55078125 209.203125 C199.22078125 209.863125 198.89078125 210.523125 198.55078125 211.203125 C197.22610379 211.8868295 195.89214492 212.55276686 194.55078125 213.203125 C193.89078125 213.863125 193.23078125 214.523125 192.55078125 215.203125 C191.21744792 215.86979167 189.88411458 216.53645833 188.55078125 217.203125 C187.89078125 217.863125 187.23078125 218.523125 186.55078125 219.203125 C185.21744792 219.86979167 183.88411458 220.53645833 182.55078125 221.203125 C181.89078125 221.863125 181.23078125 222.523125 180.55078125 223.203125 C179.21744792 223.86979167 177.88411458 224.53645833 176.55078125 225.203125 C175.89078125 225.863125 175.23078125 226.523125 174.55078125 227.203125 C173.21744792 227.86979167 171.88411458 228.53645833 170.55078125 229.203125 C169.89078125 229.863125 169.23078125 230.523125 168.55078125 231.203125 C167.21744792 231.86979167 165.88411458 232.53645833 164.55078125 233.203125 C163.89078125 233.863125 163.23078125 234.523125 162.55078125 235.203125 C160.55970877 236.22078427 158.55859302 237.21890354 156.55078125 238.203125 C153.85374518 239.73553186 151.7445277 241.00937855 149.55078125 243.203125 C148.21744792 243.86979167 146.88411458 244.53645833 145.55078125 245.203125 C144.89078125 245.863125 144.23078125 246.523125 143.55078125 247.203125 C142.21744792 247.86979167 140.88411458 248.53645833 139.55078125 249.203125 C138.89078125 249.863125 138.23078125 250.523125 137.55078125 251.203125 C136.21744792 251.86979167 134.88411458 252.53645833 133.55078125 253.203125 C132.89078125 253.863125 132.23078125 254.523125 131.55078125 255.203125 C130.21744792 255.86979167 128.88411458 256.53645833 127.55078125 257.203125 C126.89078125 257.863125 126.23078125 258.523125 125.55078125 259.203125 C121.97385817 262.203125 121.97385817 262.203125 118.55078125 262.203125 C118.34324219 261.23375 118.13570312 260.264375 117.921875 259.265625 C112.4380221 234.90283362 100.02499243 213.2196795 78.73828125 199.328125 C59.73230562 187.53259796 40.44396071 184.23881884 18.34622192 183.87265015 C-37.72110513 182.86722703 -102.97040221 175.45736537 -144.01171875 132.984375 C-153.12680066 122.58383282 -158.91877896 109.95611821 -160.44921875 96.203125 C-160.53300781 95.501875 -160.61679687 94.800625 -160.703125 94.078125 C-161.63304796 78.23943724 -153.74606549 62.34636028 -143.71875 50.72265625 C-142.96980469 49.89121094 -142.22085937 49.05976563 -141.44921875 48.203125 C-140.83433594 47.50574219 -140.21945312 46.80835938 -139.5859375 46.08984375 C-111.42064374 15.9945941 -64.72590636 5.58503054 -25.44921875 1.203125 C-24.26240005 1.07043213 -24.26240005 1.07043213 -23.05160522 0.93505859 C-15.36305608 0.15557521 -7.7239651 0.02545172 0 0 Z " fill="#00B8F0" transform="translate(586.44921875,220.796875)"/>
<path d="M0 0 C1.54797448 0.00561461 3.09595438 0.00987585 4.64393616 0.01286316 C8.66343637 0.02416553 12.68259681 0.0535013 16.70196533 0.0869751 C20.82535204 0.11799648 24.94879516 0.13143607 29.07226562 0.14648438 C37.12254952 0.17838962 45.17256029 0.22940208 53.22265625 0.29296875 C53.22265625 0.62296875 53.22265625 0.95296875 53.22265625 1.29296875 C48.61864743 1.43796476 44.01456484 1.58024748 39.41040039 1.72021484 C37.85015706 1.76800521 36.2899347 1.81648628 34.72973633 1.86572266 C25.22300812 2.16519529 15.73515491 2.36837334 6.22265625 2.29296875 C5.13887213 8.10599267 4.95414696 10.25401693 8.22265625 15.29296875 C7.84765625 17.91796875 7.84765625 17.91796875 7.22265625 20.29296875 C7.55265625 21.28296875 7.88265625 22.27296875 8.22265625 23.29296875 C7.89265625 23.62296875 7.56265625 23.95296875 7.22265625 24.29296875 C8.21265625 25.28296875 8.21265625 25.28296875 9.22265625 26.29296875 C9.22265625 27.28296875 9.22265625 28.27296875 9.22265625 29.29296875 C9.74493553 33.26229131 11.02934247 35.95531735 13.22265625 39.29296875 C12.56265625 39.29296875 11.90265625 39.29296875 11.22265625 39.29296875 C11.79610562 42.16021561 12.08410775 43.15442025 14.22265625 45.29296875 C13.56265625 46.28296875 12.90265625 47.27296875 12.22265625 48.29296875 C13.12011185 51.35927539 13.95304433 53.02335683 16.22265625 55.29296875 C15.56265625 56.28296875 14.90265625 57.27296875 14.22265625 58.29296875 C15.00395696 60.78849359 15.00395696 60.78849359 16.22265625 63.29296875 C16.38765625 64.01484375 16.55265625 64.73671875 16.72265625 65.48046875 C17.12643255 67.5258154 17.12643255 67.5258154 19.22265625 69.29296875 C18.91100184 71.29646136 18.57502122 73.29623391 18.22265625 75.29296875 C18.43595074 78.03536018 18.43595074 78.03536018 19.22265625 80.29296875 C19.88265625 80.62296875 20.54265625 80.95296875 21.22265625 81.29296875 C21.03703125 81.84984375 20.85140625 82.40671875 20.66015625 82.98046875 C20.1389127 85.73561322 20.42686935 87.616231 21.22265625 90.29296875 C21.88265625 90.62296875 22.54265625 90.95296875 23.22265625 91.29296875 C22.99578125 91.89109375 22.76890625 92.48921875 22.53515625 93.10546875 C22.38046875 94.18828125 22.38046875 94.18828125 22.22265625 95.29296875 C22.71894531 95.73898437 23.21523438 96.185 23.7265625 96.64453125 C25.22265625 98.29296875 25.22265625 98.29296875 25.26171875 100.484375 C25.12507812 101.26683594 24.9884375 102.04929687 24.84765625 102.85546875 C24.17249926 106.18815268 24.17249926 106.18815268 25.22265625 109.29296875 C24.89265625 109.62296875 24.56265625 109.95296875 24.22265625 110.29296875 C24.88265625 110.95296875 25.54265625 111.61296875 26.22265625 112.29296875 C26.22265625 113.28296875 26.22265625 114.27296875 26.22265625 115.29296875 C26.74493553 119.26229131 28.02934247 121.95531735 30.22265625 125.29296875 C29.56265625 125.29296875 28.90265625 125.29296875 28.22265625 125.29296875 C28.79610562 128.16021561 29.08410775 129.15442025 31.22265625 131.29296875 C30.56265625 132.28296875 29.90265625 133.27296875 29.22265625 134.29296875 C30.12011185 137.35927539 30.95304433 139.02335683 33.22265625 141.29296875 C32.56265625 142.28296875 31.90265625 143.27296875 31.22265625 144.29296875 C31.63771502 146.51685824 31.63771502 146.51685824 32.59765625 148.79296875 C33.67346291 151.5994209 34.22265625 153.24440194 34.22265625 156.29296875 C34.88265625 156.62296875 35.54265625 156.95296875 36.22265625 157.29296875 C36.03703125 157.84984375 35.85140625 158.40671875 35.66015625 158.98046875 C35.1389127 161.73561322 35.42686935 163.616231 36.22265625 166.29296875 C36.88265625 166.62296875 37.54265625 166.95296875 38.22265625 167.29296875 C38.03703125 167.84984375 37.85140625 168.40671875 37.66015625 168.98046875 C37.1389127 171.73561322 37.42686935 173.616231 38.22265625 176.29296875 C38.88265625 176.62296875 39.54265625 176.95296875 40.22265625 177.29296875 C39.89265625 178.94296875 39.56265625 180.59296875 39.22265625 182.29296875 C58.36265625 182.62296875 77.50265625 182.95296875 97.22265625 183.29296875 C97.22265625 183.62296875 97.22265625 183.95296875 97.22265625 184.29296875 C62.24265625 184.29296875 27.26265625 184.29296875 -8.77734375 184.29296875 C-8.71933594 196.39082031 -8.66132813 208.48867188 -8.6015625 220.953125 C-8.57600511 228.63216683 -8.5517272 236.31117768 -8.53320312 243.99023438 C-8.50358507 256.17011087 -8.46884879 268.34981387 -8.40014648 280.52954102 C-8.35012525 289.40170841 -8.31800876 298.27373445 -8.30690128 307.14603895 C-8.30041406 311.83877444 -8.28529534 316.53110576 -8.24869347 321.22371101 C-8.21443725 325.65199201 -8.20434971 330.07970721 -8.21180534 334.50810814 C-8.21044389 336.12245904 -8.20068928 337.73683136 -8.18131638 339.35106659 C-7.9767782 357.29326932 -12.87523196 372.12092328 -25.40234375 385.48046875 C-41.33472155 400.61983227 -59.80775492 404.73273861 -81.07421875 404.51171875 C-87.32217435 404.34911743 -92.89556333 403.42927579 -98.77734375 401.29296875 C-99.6178125 401.02613281 -100.45828125 400.75929688 -101.32421875 400.484375 C-116.22223711 395.279322 -125.38490044 384.68492786 -132.296875 371.05078125 C-135.57606697 363.47436814 -136.07353588 355.39586354 -136.04476929 347.24534607 C-136.05156596 345.80494409 -136.05156596 345.80494409 -136.05849993 344.33544308 C-136.07107493 341.1447212 -136.06952802 337.95417152 -136.06787109 334.76342773 C-136.07386076 332.46443973 -136.08066731 330.16545372 -136.08822632 327.86647034 C-136.10585152 321.63883613 -136.11058031 315.41125693 -136.11185789 309.18360019 C-136.11328232 305.28612689 -136.11755752 301.38866744 -136.12285233 297.49119759 C-136.14038991 284.57672947 -136.149694 271.6623002 -136.14819138 258.74782073 C-136.14811147 258.0530101 -136.14803155 257.35819948 -136.14794922 256.64233398 C-136.14786746 255.94666319 -136.1477857 255.2509924 -136.14770146 254.53424067 C-136.14688959 243.2751478 -136.16600621 232.01618903 -136.19422595 220.75713491 C-136.22305108 209.16392741 -136.23639583 197.57079124 -136.2350384 185.97754723 C-136.23453037 179.48195864 -136.24012542 172.98652184 -136.2613945 166.49096489 C-136.28087429 160.37508395 -136.28083495 154.25949803 -136.26636124 148.14360619 C-136.26428391 145.91089188 -136.26890905 143.67815862 -136.28108215 141.44547653 C-136.36482192 125.00964936 -134.8964436 109.99089081 -128.15234375 94.79296875 C-127.81315918 94.01163574 -127.47397461 93.23030273 -127.12451172 92.42529297 C-119.58499011 75.54561457 -109.24056202 60.99348506 -96.73046875 47.43359375 C-95.14831767 45.69955617 -93.66787494 43.94597493 -92.21484375 42.10546875 C-89.02556747 38.42553458 -85.51890536 35.40036737 -81.77734375 32.29296875 C-81.26413574 31.85678223 -80.75092773 31.4205957 -80.22216797 30.97119141 C-68.11967471 20.71242377 -55.43022819 12.27141794 -40.65234375 6.35546875 C-39.98549561 6.08500732 -39.31864746 5.8145459 -38.6315918 5.53588867 C-25.97401542 0.77893174 -13.34979775 -0.1451516 0 0 Z " fill="#004FA2" transform="translate(459.77734375,588.70703125)"/>
<path d="M0 0 C2 1 2 1 2.59765625 2.71484375 C2.75105469 3.44832031 2.90445313 4.18179687 3.0625 4.9375 C3.21847656 5.64777344 3.37445312 6.35804688 3.53515625 7.08984375 C6.2281892 23.94958787 6.36538464 42.24430188 3 59 C2.85997559 59.70334473 2.71995117 60.40668945 2.57568359 61.13134766 C-2.34603499 84.81999317 -13.7213852 105.16693438 -31 122 C-32.1446875 123.175625 -32.1446875 123.175625 -33.3125 124.375 C-60.8696627 151.29129845 -96.63537795 165.20149708 -133 176 C-134.02614914 176.30685226 -134.02614914 176.30685226 -135.07302856 176.61990356 C-146.4652399 179.99806084 -157.93055686 182.57270311 -169.6003418 184.79516602 C-172.35717174 185.32102097 -175.11122537 185.8599749 -177.86523438 186.40039062 C-179.63527011 186.74294564 -181.40544728 187.08477086 -183.17578125 187.42578125 C-183.99033279 187.58508621 -184.80488434 187.74439117 -185.64411926 187.90852356 C-189.48397983 188.63394863 -193.07081853 189.19840373 -197 189 C-194.76342113 186.76342113 -192.74444602 186.1106969 -189.79614258 185.09887695 C-164.28253224 176.34029705 -147.19553985 158.76086613 -135.4921875 134.9296875 C-128.42376945 119.05749128 -127.7127993 102.13630826 -128 85 C-127.34 85 -126.68 85 -126 85 C-125.67 84.34 -125.34 83.68 -125 83 C-118.88033681 78.0884622 -112.28561741 73.82192918 -105.640625 69.6640625 C-102.40651292 67.62599778 -99.23588142 65.5018513 -96.0703125 63.359375 C-93.75189429 61.83709286 -91.38138875 60.42156183 -89 59 C-81.23136335 54.15227255 -73.60346792 49.1015556 -66 44 C-57.50683444 38.30150074 -48.93801185 32.74762131 -40.2890625 27.2890625 C-34.49006281 23.61691656 -28.75165581 19.86573418 -23.05078125 16.04296875 C-20.9905234 14.66330824 -18.92527188 13.29107996 -16.85546875 11.92578125 C-11.0950047 8.12170122 -5.45343284 4.2344302 0 0 Z " fill="#004FA1" transform="translate(834,398)"/>
<path d="M0 0 C1.04458873 24.93000365 2.08775069 49.86006666 3.12921143 74.79020119 C3.61280634 86.36553372 4.09686915 97.94084632 4.58203125 109.51611328 C5.00486806 119.60441711 5.42682922 129.69275711 5.84773636 139.78114164 C6.07065886 145.12345576 6.29402153 150.46575066 6.51843262 155.80800247 C6.72963109 160.83604924 6.9396589 165.86414354 7.14878845 170.89227676 C7.22575261 172.73776554 7.30314467 174.58323652 7.3809967 176.42868805 C7.4872492 178.94888223 7.5919598 181.46913598 7.69628906 183.9894104 C7.72741665 184.71899542 7.75854424 185.44858045 7.79061508 186.20027411 C7.95174597 190.13649025 8.0299191 194.06057259 8 198 C8.66 198.33 9.32 198.66 10 199 C-5.67234555 204.5459801 -24.19925764 205.73894888 -40 200 C-40.84046875 199.73316406 -41.6809375 199.46632813 -42.546875 199.19140625 C-56.51341865 194.31179084 -66.34015885 184.33847301 -72.7121582 171.28149414 C-78.4743728 158.80365303 -77.50323444 146.2136778 -75.375 132.9375 C-75.19751221 131.81843262 -75.02002441 130.69936523 -74.8371582 129.54638672 C-68.79161677 92.82171034 -57.79082974 55.65370065 -33 27 C-32.31550781 26.18273437 -31.63101563 25.36546875 -30.92578125 24.5234375 C-9.78095975 0 -9.78095975 0 0 0 Z " fill="#00A2DF" transform="translate(401,790)"/>
<path d="M0 0 C0.66 0.33 1.32 0.66 2 1 C2 1.99 2 2.98 2 4 C2.66 4.33 3.32 4.66 4 5 C3.814375 5.7425 3.62875 6.485 3.4375 7.25 C2.99628854 10.02332918 2.96864347 11.42160868 4 14 C4.53625 14.495 5.0725 14.99 5.625 15.5 C6.07875 15.995 6.5325 16.49 7 17 C6.835 17.598125 6.67 18.19625 6.5 18.8125 C5.73494952 22.15959586 7.36300505 24.11888889 9 27 C8.34 27.99 7.68 28.98 7 30 C7.82917122 33.07085835 7.82917122 33.07085835 9 36 C9 36.66 9 37.32 9 38 C9.66 38.33 10.32 38.66 11 39 C10.34 39 9.68 39 9 39 C10.485 41.475 10.485 41.475 12 44 C11.34 44 10.68 44 10 44 C10.309375 45.051875 10.61875 46.10375 10.9375 47.1875 C11.52485892 49.29508199 12.0809951 51.41509988 12.5 53.5625 C13.24593809 57.19894817 14.33848641 60.67697282 16 64 C15.34 64 14.68 64 14 64 C14.28359887 65.4391134 14.57721399 66.87625518 14.875 68.3125 C15.11863281 69.51326172 15.11863281 69.51326172 15.3671875 70.73828125 C15.94478999 73.25301118 15.94478999 73.25301118 18 76 C18 76.66 18 77.32 18 78 C18.33 78.66 18.66 79.32 19 80 C18.34 80 17.68 80 17 80 C17.57344937 82.86724686 17.8614515 83.8614515 20 86 C19.7215625 86.9590625 19.7215625 86.9590625 19.4375 87.9375 C19.293125 88.618125 19.14875 89.29875 19 90 C19.495 90.495 19.99 90.99 20.5 91.5 C20.995 91.995 21.49 92.49 22 93 C21.835 93.598125 21.67 94.19625 21.5 94.8125 C20.73494952 98.15959586 22.36300505 100.11888889 24 103 C23.34 103.99 22.68 104.98 22 106 C22.8974556 109.06630664 23.73038808 110.73038808 26 113 C25.34 113.99 24.68 114.98 24 116 C24.8974556 119.06630664 25.73038808 120.73038808 28 123 C27.34 123.99 26.68 124.98 26 126 C26.93189991 129.10633303 28.19193628 131.28790442 30 134 C29.34 134 28.68 134 28 134 C28.33 134.99 28.66 135.98 29 137 C28.69728039 138.34061543 28.36162029 139.67405895 28 141 C28 142.32 28 143.64 28 145 C26.39803712 147.25864987 24.78068826 149.32974654 23 151.4375 C-3.30785745 183.8144522 -14.34700942 226.27382434 -19 267 C-19.33 267 -19.66 267 -20 267 C-20.0914582 238.6257333 -20.16214553 210.2514853 -20.20426132 181.87709979 C-20.20926351 178.51922188 -20.21444086 175.16134427 -20.21972656 171.8034668 C-20.2207758 171.13503775 -20.22182505 170.4666087 -20.22290608 169.77792423 C-20.24026136 158.9870307 -20.27177179 148.19622333 -20.30861118 137.40538073 C-20.34615704 126.31423128 -20.36796556 115.22312905 -20.37635398 104.13191932 C-20.38154978 97.91002496 -20.39368503 91.68832531 -20.42292023 85.46649361 C-20.45026622 79.59864237 -20.45840648 73.73106428 -20.45243073 67.86315536 C-20.45352243 65.72074202 -20.46136099 63.57831861 -20.4768219 61.43596077 C-20.59039173 44.87303252 -18.78721218 30.06370099 -12.0625 14.75 C-11.74087891 13.96238281 -11.41925781 13.17476562 -11.08789062 12.36328125 C-9.08234262 7.67180208 -7.00979469 4.32111406 -3 1 C-2.01 0.67 -1.02 0.34 0 0 Z " fill="#002884" transform="translate(344,668)"/>
<path d="M0 0 C-1.24281247 23.61343697 -16.09096654 47.23584902 -33 63 C-34.1446875 64.175625 -34.1446875 64.175625 -35.3125 65.375 C-62.8696627 92.29129845 -98.63537795 106.20149708 -135 117 C-136.02614914 117.30685226 -136.02614914 117.30685226 -137.07302856 117.61990356 C-148.4652399 120.99806084 -159.93055686 123.57270311 -171.6003418 125.79516602 C-174.35717174 126.32102097 -177.11122537 126.8599749 -179.86523438 127.40039062 C-181.63527011 127.74294564 -183.40544728 128.08477086 -185.17578125 128.42578125 C-185.99033279 128.58508621 -186.80488434 128.74439117 -187.64411926 128.90852356 C-191.48397983 129.63394863 -195.07081853 130.19840373 -199 130 C-196.76342113 127.76342113 -194.74444602 127.1106969 -191.79614258 126.09887695 C-175.73549183 120.58540822 -161.06521965 110.95113085 -150.45703125 97.5546875 C-148.03738039 94.97286165 -145.09883525 93.22778291 -142.1171875 91.35546875 C-139.79558902 89.92396308 -139.79558902 89.92396308 -137.0625 87.625 C-135 86 -135 86 -133 86 C-131.66086965 84.672489 -130.32860525 83.33804471 -129 82 C-127.3037649 80.80595734 -125.57169268 79.66167811 -123.8125 78.5625 C-122.83925781 77.9540625 -121.86601563 77.345625 -120.86328125 76.71875 C-118.43730981 75.2625052 -115.99566562 73.89352167 -113.5 72.5625 C-108.87522839 70.05499367 -104.73297605 66.99293751 -100.515625 63.859375 C-98.55819872 62.41258167 -96.59604873 61.02265826 -94.5625 59.6875 C-92.30370343 58.19999982 -90.15349969 56.63368942 -88 55 C-70 43 -70 43 -67 41.875 C-62.47031285 39.99080241 -58.79473743 37.03105882 -54.88671875 34.109375 C-51.30347317 31.49103588 -47.5886659 29.14208666 -43.828125 26.7890625 C-40.78860412 24.86627167 -37.79925609 22.87867808 -34.8125 20.875 C-30.25986291 17.82620174 -25.66626356 14.87078794 -21 12 C-19.72840871 11.20955136 -18.45759656 10.41784816 -17.1875 9.625 C-16.53910156 9.22152344 -15.89070312 8.81804687 -15.22265625 8.40234375 C-13.51385701 7.32420855 -11.81521124 6.22996768 -10.12109375 5.12890625 C-8.63802734 4.16791016 -8.63802734 4.16791016 -7.125 3.1875 C-6.19945312 2.58292969 -5.27390625 1.97835938 -4.3203125 1.35546875 C-2 0 -2 0 0 0 Z " fill="#00368F" transform="translate(836,457)"/>
<path d="M0 0 C0.99 0.66 1.98 1.32 3 2 C3.6875 5.625 3.6875 5.625 4 9 C4.99 9.33 5.98 9.66 7 10 C6.34 10.99 5.68 11.98 5 13 C5.66 13.66 6.32 14.32 7 15 C6.34 15.99 5.68 16.98 5 18 C5.66 18.66 6.32 19.32 7 20 C6.979375 20.969375 6.95875 21.93875 6.9375 22.9375 C6.958125 23.948125 6.97875 24.95875 7 26 C7.515625 26.495 8.03125 26.99 8.5625 27.5 C9.036875 27.995 9.51125 28.49 10 29 C9.68143549 31.00240549 9.34578768 33.00211562 9 35 C9.6090107 37.34904126 10.28072705 39.68234271 11 42 C11.19444256 43.32956671 11.36067716 44.66353275 11.5 46 C11.78913136 48.6847912 12.24599622 50.86098676 13 53.5 C14.10970438 57.38396532 14.54705444 60.98819651 15 65 C15.49927753 67.80843611 16.09635954 70.28907863 17 73 C16.34 73 15.68 73 15 73 C15.309375 73.61875 15.61875 74.2375 15.9375 74.875 C16.625 76.25 17.3125 77.625 18 79 C17.34 79 16.68 79 16 79 C16.515625 79.556875 17.03125 80.11375 17.5625 80.6875 C19 83 19 83 18.6875 85.75 C18.460625 86.4925 18.23375 87.235 18 88 C18.99 88.495 18.99 88.495 20 89 C19.34 89 18.68 89 18 89 C18.515625 89.556875 19.03125 90.11375 19.5625 90.6875 C21 93 21 93 20.6875 95.75 C20.460625 96.4925 20.23375 97.235 20 98 C20.99 98.495 20.99 98.495 22 99 C21.34 99 20.68 99 20 99 C20.515625 99.556875 21.03125 100.11375 21.5625 100.6875 C23 103 23 103 22.6875 105.75 C22.460625 106.4925 22.23375 107.235 22 108 C22.99 108.495 22.99 108.495 24 109 C23.34 109 22.68 109 22 109 C22.515625 109.556875 23.03125 110.11375 23.5625 110.6875 C25 113 25 113 24.6875 115.75 C24.460625 116.4925 24.23375 117.235 24 118 C24.99 118.495 24.99 118.495 26 119 C25.34 119 24.68 119 24 119 C24.34444881 121.47266765 24.34444881 121.47266765 25 124 C25.99 124.495 25.99 124.495 27 125 C27.5625 126.93359375 27.5625 126.93359375 28 129.4375 C28.165 130.34371094 28.33 131.24992188 28.5 132.18359375 C28.665 133.11300781 28.83 134.04242187 29 135 C29.49216258 137.49541808 29.99754171 139.98789911 30.50390625 142.48046875 C30.84414163 144.20843582 31.16340787 145.94062514 31.46484375 147.67578125 C32.30648259 152.37087397 33.11513205 156.06608916 36 160 C34.845 160.598125 33.69 161.19625 32.5 161.8125 C20.57971278 168.46830706 9.75903505 176.46840009 0 186 C-0.99 185.34 -1.98 184.68 -3 184 C-2.835 182.88625 -2.67 181.7725 -2.5 180.625 C-1.9544542 177.27967967 -1.9544542 177.27967967 -2 175 C-2.99 174.01 -2.99 174.01 -4 173 C-4.93312508 169.69164744 -5.10773342 168.32320026 -4 165 C-4.66 164.34 -5.32 163.68 -6 163 C-6.93312508 159.69164744 -7.10773342 158.32320026 -6 155 C-6.66 154.34 -7.32 153.68 -8 153 C-8.75 150.5625 -8.75 150.5625 -9 148 C-8.34 147.01 -7.68 146.02 -7 145 C-7.515625 144.278125 -8.03125 143.55625 -8.5625 142.8125 C-10.26516512 139.48119868 -9.73981542 138.51412323 -9 135 C-9.47050781 134.55011719 -9.94101562 134.10023438 -10.42578125 133.63671875 C-12.43077687 131.55212033 -12.47642905 130.28461258 -12.6875 127.4375 C-12.75324219 126.65246094 -12.81898438 125.86742187 -12.88671875 125.05859375 C-12.9610813 123.70724678 -13 122.35339145 -13 121 C-13.52072435 118.56995305 -14.23291617 116.39183001 -15.125 114.0625 C-16.06131435 110.78539977 -15.78787199 109.23902928 -15 106 C-15.7763932 102.9254644 -15.7763932 102.9254644 -18 101 C-18 99 -18 97 -18 95 C-18.350625 94.319375 -18.70125 93.63875 -19.0625 92.9375 C-20.32760095 90.32295804 -19.55863414 88.7931707 -19 86 C-19.79117904 84.00016466 -19.79117904 84.00016466 -21 82 C-21.70381157 80.01276732 -22.3711811 78.01222047 -23 76 C-23.2475 75.278125 -23.495 74.55625 -23.75 73.8125 C-24 72 -24 72 -22 69 C-22.515625 68.278125 -23.03125 67.55625 -23.5625 66.8125 C-25.26516512 63.48119868 -24.73981542 62.51412323 -24 59 C-24.680625 58.319375 -24.680625 58.319375 -25.375 57.625 C-27.8757824 55.1242176 -27.68383595 52.41457174 -28 49 C-28 48.67 -28 48.34 -28 48 C-28.65035814 46.65863633 -29.3162955 45.32467746 -30 44 C-31.98 44.66 -33.96 45.32 -36 46 C-29.05484834 33.06029007 -20.94304532 21.97344352 -10.96875 11.15625 C-9.30558948 9.33469324 -7.73213038 7.4838695 -6.1875 5.5625 C-4.25394057 3.29747324 -2.46611957 1.64407971 0 0 Z " fill="#00368F" transform="translate(374,625)"/>
<path d="M0 0 C0.11708358 22.03650493 0.20511039 44.07295817 0.25906086 66.10971165 C0.28478291 76.34302261 0.31981807 86.5761397 0.37719727 96.80932617 C0.42721662 105.73423127 0.45933456 114.65899586 0.47044247 123.58403724 C0.47693 128.30471735 0.49205077 133.0249957 0.52865028 137.74554634 C0.5629035 142.20009129 0.57299462 146.65407379 0.56553841 151.10873795 C0.56689999 152.732764 0.5766564 154.35681133 0.59602737 155.98072243 C0.80334238 174.27714362 -4.23063186 189.22661096 -17.25 202.625 C-21.53736089 206.84578696 -21.53736089 206.84578696 -25 208 C-26.81787894 206.18212106 -26.27515454 203.33643148 -26.37927246 200.88246155 C-26.40800619 200.23589377 -26.43673991 199.589326 -26.46634436 198.92316526 C-26.56220341 196.73939446 -26.65118377 194.55539617 -26.74023438 192.37133789 C-26.80731984 190.81059557 -26.8748193 189.249871 -26.94270325 187.68916321 C-27.12684196 183.42692303 -27.30497016 179.16445016 -27.48196602 174.90190816 C-27.66918381 170.41464972 -27.86147133 165.92760831 -28.05310059 161.4405365 C-28.37572384 153.86845119 -28.69465762 146.29621751 -29.01123047 138.72387695 C-29.37350462 130.05894703 -29.74048485 121.39422754 -30.11038542 112.72962004 C-30.50728034 103.43172698 -30.9007074 94.13368939 -31.29312325 84.83560634 C-31.40445896 82.20251449 -31.51639037 79.56944856 -31.62846375 76.93638802 C-32.59071625 54.29469985 -33.39726547 31.65422191 -34 9 C-32.39679079 8.35078063 -30.79279253 7.70350957 -29.1884613 7.05706787 C-28.29531943 6.69641109 -27.40217756 6.33575432 -26.48197079 5.96416855 C-23.86102083 4.94601091 -21.27311397 4.15419981 -18.53515625 3.515625 C-17.63345703 3.30292969 -16.73175781 3.09023438 -15.80273438 2.87109375 C-14.44631836 2.56365234 -14.44631836 2.56365234 -13.0625 2.25 C-12.13115234 2.02957031 -11.19980469 1.80914063 -10.24023438 1.58203125 C-3.43553474 0 -3.43553474 0 0 0 Z " fill="#002783" transform="translate(451,772)"/>
<path d="M0 0 C0.11708358 22.03650493 0.20511039 44.07295817 0.25906086 66.10971165 C0.28478291 76.34302261 0.31981807 86.5761397 0.37719727 96.80932617 C0.42721662 105.73423127 0.45933456 114.65899586 0.47044247 123.58403724 C0.47693 128.30471735 0.49205077 133.0249957 0.52865028 137.74554634 C0.5629035 142.20009129 0.57299462 146.65407379 0.56553841 151.10873795 C0.56689999 152.732764 0.5766564 154.35681133 0.59602737 155.98072243 C0.72820245 167.64572885 -0.32979751 178.99469627 -7 189 C-9 188 -9 188 -9.6875 186.1875 C-10 184 -10 184 -9.5 182.0625 C-8.86102677 179.42673545 -9.44564834 177.64856902 -10 175 C-10.12782974 171.29293762 -10.17554079 168.52662236 -9 165 C-9.33 164.195625 -9.66 163.39125 -10 162.5625 C-11.1401824 159.6407826 -10.8167015 158.90382757 -10 156 C-10.31595508 154.32995171 -10.65179959 152.66362417 -11 151 C-11.12782974 147.29293762 -11.17554079 144.52662236 -10 141 C-10.33 140.195625 -10.66 139.39125 -11 138.5625 C-12.1401824 135.6407826 -11.8167015 134.90382757 -11 132 C-11.31595508 130.32995171 -11.65179959 128.66362417 -12 127 C-12.12782974 123.29293762 -12.17554079 120.52662236 -11 117 C-11.33 116.195625 -11.66 115.39125 -12 114.5625 C-13.1401824 111.6407826 -12.8167015 110.90382757 -12 108 C-12.31595508 106.32995171 -12.65179959 104.66362417 -13 103 C-13.12782974 99.29293762 -13.17554079 96.52662236 -12 93 C-12.33 92.67 -12.66 92.34 -13 92 C-13.26672673 89.26456924 -13.47000257 86.55458685 -13.625 83.8125 C-13.6765625 83.05646484 -13.728125 82.30042969 -13.78125 81.52148438 C-14.03873342 77.1556258 -13.79361318 73.32451925 -13 69 C-13.33 68.67 -13.66 68.34 -14 68 C-14.26672673 65.26456924 -14.47000257 62.55458685 -14.625 59.8125 C-14.6765625 59.05646484 -14.728125 58.30042969 -14.78125 57.52148438 C-15.03873342 53.1556258 -14.79361318 49.32451925 -14 45 C-14.33 44.67 -14.66 44.34 -15 44 C-15.26672673 41.26456924 -15.47000257 38.55458685 -15.625 35.8125 C-15.6765625 35.05646484 -15.728125 34.30042969 -15.78125 33.52148438 C-16.03873342 29.1556258 -15.79361318 25.32451925 -15 21 C-15.33 20.67 -15.66 20.34 -16 20 C-16.07325168 17.13732433 -16.09238205 14.299281 -16.0625 11.4375 C-16.05798828 10.63119141 -16.05347656 9.82488281 -16.04882812 8.99414062 C-16.03700518 6.99606244 -16.01906914 4.99802217 -16 3 C-13.89679937 2.49595192 -11.79240209 1.99689492 -9.6875 1.5 C-8.51574219 1.2215625 -7.34398437 0.943125 -6.13671875 0.65625 C-3 0 -3 0 0 0 Z " fill="#00066A" transform="translate(451,772)"/>
<path d="M0 0 C1 3 1 3 0.13671875 5.2421875 C-5.77070513 15.97427292 -13.02577228 25.63340228 -22 34 C-22.763125 34.78375 -23.52625 35.5675 -24.3125 36.375 C-48.07656009 59.58640753 -78.24033603 73.4780719 -109.5625 83.5625 C-110.57756119 83.88963989 -110.57756119 83.88963989 -111.61312866 84.22338867 C-117.69840985 86.17162721 -123.65713886 88.07149935 -130 89 C-130 86.6875 -130 86.6875 -129 84 C-127.13108366 83.26578287 -125.25262288 82.54775047 -123.3359375 81.94921875 C-118.21900541 79.86993029 -113.8764484 75.8764484 -110 72 C-107.5 70.3125 -107.5 70.3125 -105 69 C-104.34 69.33 -103.68 69.66 -103 70 C-102.814375 69.4225 -102.62875 68.845 -102.4375 68.25 C-100.70399094 65.53668148 -98.67323547 64.4884337 -95.8671875 63.00390625 C-93.11863377 61.52612736 -90.58612237 59.74282159 -88 58 C-87.0925 57.46375 -86.185 56.9275 -85.25 56.375 C-82.90851813 55.06494515 -82.90851813 55.06494515 -81 53 C-80.236875 52.71125 -79.47375 52.4225 -78.6875 52.125 C-75.62251225 50.84198187 -73.55593251 49.10864432 -71 47 C-69.33675599 45.99431758 -67.67063747 44.99335201 -66 44 C-65.01 43.01 -65.01 43.01 -64 42 C-63.34 42 -62.68 42 -62 42 C-59.13397214 39.73947098 -56.39237179 37.35320496 -53.62890625 34.96875 C-50.64603679 32.73492205 -49.55240599 33 -46 33 C-45.67 32.01 -45.34 31.02 -45 30 C-44.34 30 -43.68 30 -43 30 C-42.195625 29.195625 -41.39125 28.39125 -40.5625 27.5625 C-38 25 -38 25 -35 24 C-34.34 23.34 -33.68 22.68 -33 22 C-32 21 -32 21 -30.0625 20.0625 C-27.85435847 19.05754229 -27.85435847 19.05754229 -26 17 C-25.34 17 -24.68 17 -24 17 C-23.34 16.34 -22.68 15.68 -22 15 C-20.33333333 14 -18.66666667 13 -17 12 C-16.34 11.34 -15.68 10.68 -15 10 C-14.34 10 -13.68 10 -13 10 C-11.68907888 8.94373905 -10.42427594 7.82968504 -9.1875 6.6875 C-6.27475861 4.06656331 -3.47980761 1.84864779 0 0 Z " fill="#002985" transform="translate(825,486)"/>
<path d="M0 0 C0.33 0 0.66 0 1 0 C1.02505615 1.02359619 1.0501123 2.04719238 1.07592773 3.10180664 C1.17058794 6.92434742 1.27066195 10.7467311 1.37231445 14.5690918 C1.41544286 16.21879381 1.45713201 17.86853415 1.49731445 19.51831055 C1.55555647 21.89904289 1.61909097 24.27958627 1.68359375 26.66015625 C1.70030624 27.38960953 1.71701874 28.11906281 1.73423767 28.87062073 C1.60446125 36.90143576 1.60446125 36.90143576 4.5625 43.9375 C5.2740625 44.4634375 5.2740625 44.4634375 6 45 C5.34 45.99 4.68 46.98 4 48 C4.66 48.33 5.32 48.66 6 49 C5.34 49 4.68 49 4 49 C4.515625 49.556875 5.03125 50.11375 5.5625 50.6875 C7.43980126 53.70750638 6.68489746 54.57551268 6 58 C6.46499116 61.05253021 7.22021698 64.01439243 8 67 C8.14695312 67.71027344 8.29390625 68.42054688 8.4453125 69.15234375 C8.90819545 71.22414815 8.90819545 71.22414815 11 73 C11 73.66 11 74.32 11 75 C11.33 75.66 11.66 76.32 12 77 C11.34 77 10.68 77 10 77 C10.13277344 77.66386719 10.26554687 78.32773437 10.40234375 79.01171875 C12 87 12 87 12.44140625 89.76953125 C12.62574219 90.50558594 12.81007813 91.24164062 13 92 C13.66 92.33 14.32 92.66 15 93 C14.34 93 13.68 93 13 93 C13 93.66 13 94.32 13 95 C13.515625 95.4125 14.03125 95.825 14.5625 96.25 C15.2740625 97.11625 15.2740625 97.11625 16 98 C15.6875 101.0625 15.6875 101.0625 15 104 C15 104.66 15 105.32 15 106 C15.66 106.33 16.32 106.66 17 107 C17 107.99 17 108.98 17 110 C17.56142594 113.68937046 18.24753395 117.34516488 19 121 C20.485 121.495 20.485 121.495 22 122 C22.042721 123.66611905 22.04063832 125.33382885 22 127 C21.67 127.33 21.34 127.66 21 128 C21.33 128.99 21.66 129.98 22 131 C21.47436523 132.84326172 21.47436523 132.84326172 20.55859375 134.9296875 C20.05839722 136.10567505 20.05839722 136.10567505 19.5480957 137.30541992 C19.18159912 138.15338135 18.81510254 139.00134277 18.4375 139.875 C8.94646653 162.79834675 3.68333016 187.36943208 1 212 C0.67 212 0.34 212 0 212 C0 142.04 0 72.08 0 0 Z " fill="#001C7A" transform="translate(324,723)"/>
<path d="M0 0 C0.02309235 0.88034062 0.04618469 1.76068125 0.06997681 2.66769886 C0.64072461 24.15309228 1.37370336 45.62593033 2.28003693 67.09967208 C2.44388119 70.99170422 2.60528852 74.88383769 2.76708984 78.7759552 C3.03779219 85.27900836 3.31029294 91.78198411 3.58398438 98.28491211 C3.89823768 105.75207465 4.20963534 113.21935223 4.5195446 120.68669623 C4.82179312 127.96806412 5.12594132 135.24935147 5.43096924 142.53060341 C5.55912322 145.59034144 5.68665765 148.6501043 5.81365967 151.70989037 C5.93393696 154.60756661 6.05562648 157.50517787 6.17849731 160.40274525 C6.29266742 163.09567669 6.40142193 165.78864628 6.5072937 168.48193645 C6.72451973 173.78821996 6.9619534 179.06564243 7.51855469 184.34829712 C7.59286713 185.10160718 7.66717957 185.85491724 7.7437439 186.63105488 C7.93870927 188.46761372 8.17452027 190.29972772 8.41552734 192.1308136 C7.94002764 195.41410486 7.44248985 195.83815109 5.00244141 197.89518738 C4.01163574 198.58977554 3.02083008 199.28436371 2 200 C1.34 199.67 0.68 199.34 0 199 C-0.89824553 178.20438122 -1.79378022 157.40864719 -2.68624783 136.61277962 C-3.10086823 126.95289935 -3.51631504 117.29305607 -3.93383789 107.63330078 C-4.29853141 99.19574618 -4.66154157 90.75812097 -5.02268082 82.32041347 C-5.21325013 77.86920858 -5.4045595 73.4180388 -5.59789848 68.96695328 C-6.58116337 46.31512661 -7.40189281 23.66541783 -8 1 C-4.93251126 -0.86240388 -3.40254489 -1.2151946 0 0 Z " fill="#00358E" transform="translate(425,780)"/>
<path d="M0 0 C1.5625 1.6875 1.5625 1.6875 3 4 C2.74303831 6.69809776 2.20824654 8.58350693 1 11 C1.66 11.33 2.32 11.66 3 12 C2.98839844 12.66386719 2.97679687 13.32773437 2.96484375 14.01171875 C2.91890521 18.50713345 2.99447943 22.60084752 4 27 C4.27260948 30.81653268 4.20435742 31.69346387 2 35 C2.66 35.33 3.32 35.66 4 36 C3.98839844 36.66386719 3.97679687 37.32773437 3.96484375 38.01171875 C3.91890521 42.50713345 3.99447943 46.60084752 5 51 C5.27260948 54.81653268 5.20435742 55.69346387 3 59 C3.66 59.33 4.32 59.66 5 60 C5 73.375 5 73.375 4 79 C4.66 79.33 5.32 79.66 6 80 C5.98839844 81.09699219 5.97679687 82.19398438 5.96484375 83.32421875 C5.95546036 84.77864412 5.94636075 86.23307135 5.9375 87.6875 C5.92912109 88.40873047 5.92074219 89.12996094 5.91210938 89.87304688 C5.8987879 92.79045035 5.90902715 95.56206094 6.50390625 98.42578125 C7.43037792 103.23322087 7.03565483 108.17173945 6.9609375 113.05078125 C6.89699129 117.80315267 6.89699129 117.80315267 7.5 122.5 C8.45424723 127.27123614 8.03517636 132.20298401 7.9609375 137.05078125 C7.95320313 137.86933594 7.94546875 138.68789063 7.9375 139.53125 C7.92589844 140.26923828 7.91429687 141.00722656 7.90234375 141.76757812 C7.9449643 144.05529866 7.9449643 144.05529866 8.49780273 146.4753418 C9.0026381 149.01326234 9.11432369 151.27982802 9.09765625 153.86328125 C9.09443359 154.74951172 9.09121094 155.63574219 9.08789062 156.54882812 C9.07951172 157.46083984 9.07113281 158.37285156 9.0625 159.3125 C9.05798828 160.24384766 9.05347656 161.17519531 9.04882812 162.13476562 C9.03709234 164.42324373 9.02067363 166.71158808 9 169 C9.66 169 10.32 169 11 169 C10.46246904 175.18160604 8.45417612 180.326858 6 186 C5.01 186 4.02 186 3 186 C2.27846573 183.75522671 1.90320474 182.37508163 2.5 180.0625 C3.13897323 177.42673545 2.55435166 175.64856902 2 173 C1.87217026 169.29293762 1.82445921 166.52662236 3 163 C2.67 162.195625 2.34 161.39125 2 160.5625 C0.8598176 157.6407826 1.1832985 156.90382757 2 154 C1.68404492 152.32995171 1.34820041 150.66362417 1 149 C0.87217026 145.29293762 0.82445921 142.52662236 2 139 C1.67 138.195625 1.34 137.39125 1 136.5625 C-0.1401824 133.6407826 0.1832985 132.90382757 1 130 C0.68404492 128.32995171 0.34820041 126.66362417 0 125 C-0.12782974 121.29293762 -0.17554079 118.52662236 1 115 C0.67 114.195625 0.34 113.39125 0 112.5625 C-1.1401824 109.6407826 -0.8167015 108.90382757 0 106 C-0.31595508 104.32995171 -0.65179959 102.66362417 -1 101 C-1.12782974 97.29293762 -1.17554079 94.52662236 0 91 C-0.33 90.67 -0.66 90.34 -1 90 C-1.26672673 87.26456924 -1.47000257 84.55458685 -1.625 81.8125 C-1.6765625 81.05646484 -1.728125 80.30042969 -1.78125 79.52148438 C-2.03873342 75.1556258 -1.79361318 71.32451925 -1 67 C-1.33 66.67 -1.66 66.34 -2 66 C-2.26672673 63.26456924 -2.47000257 60.55458685 -2.625 57.8125 C-2.6765625 57.05646484 -2.728125 56.30042969 -2.78125 55.52148438 C-3.03873342 51.1556258 -2.79361318 47.32451925 -2 43 C-2.33 42.67 -2.66 42.34 -3 42 C-3.26672673 39.26456924 -3.47000257 36.55458685 -3.625 33.8125 C-3.6765625 33.05646484 -3.728125 32.30042969 -3.78125 31.52148438 C-4.03873342 27.1556258 -3.79361318 23.32451925 -3 19 C-3.33 18.67 -3.66 18.34 -4 18 C-4.07325168 15.13732433 -4.09238205 12.299281 -4.0625 9.4375 C-4.05798828 8.63119141 -4.05347656 7.82488281 -4.04882812 6.99414062 C-4.03700518 4.99606244 -4.01906914 2.99802217 -4 1 C-2.68 0.67 -1.36 0.34 0 0 Z " fill="#001072" transform="translate(439,774)"/>
<path d="M0 0 C1.32 0 2.64 0 4 0 C4.59556679 4.16896751 5.06173282 8.16173535 5 12.375 C4.72980845 15.8322949 4.72980845 15.8322949 6 18 C6 18.99 6 19.98 6 21 C6.01160156 21.73476563 6.02320313 22.46953125 6.03515625 23.2265625 C6.04869141 24.41378906 6.04869141 24.41378906 6.0625 25.625 C6.07410156 26.42164063 6.08570313 27.21828125 6.09765625 28.0390625 C6 30 6 30 5 31 C5.06440919 33.07477703 5.06440919 33.07477703 5.375 35.4375 C5.46523438 36.24058594 5.55546875 37.04367187 5.6484375 37.87109375 C5.89989241 40.04604132 5.89989241 40.04604132 7 42 C7 42.99 7 43.98 7 45 C7.01160156 45.73476563 7.02320313 46.46953125 7.03515625 47.2265625 C7.04417969 48.01804687 7.05320312 48.80953125 7.0625 49.625 C7.07410156 50.42164063 7.08570313 51.21828125 7.09765625 52.0390625 C7 54 7 54 6 55 C6.06440919 57.07477703 6.06440919 57.07477703 6.375 59.4375 C6.46523438 60.24058594 6.55546875 61.04367187 6.6484375 61.87109375 C6.89989241 64.04604132 6.89989241 64.04604132 8 66 C8 66.99 8 67.98 8 69 C8.01160156 69.73476563 8.02320313 70.46953125 8.03515625 71.2265625 C8.04417969 72.01804687 8.05320312 72.80953125 8.0625 73.625 C8.07410156 74.42164063 8.08570313 75.21828125 8.09765625 76.0390625 C8 78 8 78 7 79 C7.06440919 81.07477703 7.06440919 81.07477703 7.375 83.4375 C7.51035156 84.64212891 7.51035156 84.64212891 7.6484375 85.87109375 C7.89989241 88.04604132 7.89989241 88.04604132 9 90 C9 97.33333333 9 104.66666667 9 112 C9.33 112.66 9.66 113.32 10 114 C10 121.33333333 10 128.66666667 10 136 C10.33 136.66 10.66 137.32 11 138 C11 145.33333333 11 152.66666667 11 160 C11.33 160.66 11.66 161.32 12 162 C12 187 12 187 10 189.1875 C9.34 189.785625 8.68 190.38375 8 191 C6.25673646 184.2867263 5.77309125 178.29013174 5.9375 171.375 C6.05219038 165.42809136 5.87850897 159.89758736 5 154 C4.88236266 150.43813091 4.97533458 146.87879718 5.0390625 143.31640625 C5.07558134 139.95058618 4.9778269 136.84478827 4.5 133.5 C3.82106413 128.74744892 3.95339007 124.10549509 4.0390625 119.31640625 C4.07558134 115.95058618 3.9778269 112.84478827 3.5 109.5 C2.82106413 104.74744892 2.95339007 100.10549509 3.0390625 95.31640625 C3.07558134 91.95058618 2.9778269 88.84478827 2.5 85.5 C1.82106413 80.74744892 1.95339007 76.10549509 2.0390625 71.31640625 C2.07558134 67.95058618 1.9778269 64.84478827 1.5 61.5 C0.82106413 56.74744892 0.95339007 52.10549509 1.0390625 47.31640625 C1.08847643 42.7620887 0.64698026 38.51875278 0 34 C-0.09307658 31.20633397 -0.04775631 28.41937271 0 25.625 C0.05659624 19.64766536 -0.23408537 13.93583841 -1 8 C-1.1167645 5.63776442 -1.09866037 3.36784894 -1 1 C-0.67 0.67 -0.34 0.34 0 0 Z " fill="#001C7B" transform="translate(431,776)"/>
<path d="M0 0 C0.66 0.66 1.32 1.32 2 2 C1.01 2.99 0.02 3.98 -1 5 C-1 1 -1 1 0 0 Z M-4 3 C-3.34 3.66 -2.68 4.32 -2 5 C-2.66 5.66 -3.32 6.32 -4 7 C-4 5.68 -4 4.36 -4 3 Z M-7 5 C-6.34 5.66 -5.68 6.32 -5 7 C-5.66 7.66 -6.32 8.32 -7 9 C-7 7.68 -7 6.36 -7 5 Z M-10 7 C-9.34 7.66 -8.68 8.32 -8 9 C-8.66 9.66 -9.32 10.32 -10 11 C-10 9.68 -10 8.36 -10 7 Z M-13 9 C-12.34 9.66 -11.68 10.32 -11 11 C-11.66 11.66 -12.32 12.32 -13 13 C-13 11.68 -13 10.36 -13 9 Z M-16 11 C-15.34 11.33 -14.68 11.66 -14 12 C-14.33 12.99 -14.66 13.98 -15 15 C-15.66 14.67 -16.32 14.34 -17 14 C-16.67 13.01 -16.34 12.02 -16 11 Z M-19 13 C-18.34 13.33 -17.68 13.66 -17 14 C-17.33 14.99 -17.66 15.98 -18 17 C-18.66 16.67 -19.32 16.34 -20 16 C-19.67 15.01 -19.34 14.02 -19 13 Z M-22 15 C-21.34 15.33 -20.68 15.66 -20 16 C-20.33 16.99 -20.66 17.98 -21 19 C-21.66 18.67 -22.32 18.34 -23 18 C-22.67 17.01 -22.34 16.02 -22 15 Z M-25 17 C-24.34 17.33 -23.68 17.66 -23 18 C-23.33 18.99 -23.66 19.98 -24 21 C-24.66 20.67 -25.32 20.34 -26 20 C-25.67 19.01 -25.34 18.02 -25 17 Z M-28 19 C-27.34 19.33 -26.68 19.66 -26 20 C-26.33 20.99 -26.66 21.98 -27 23 C-27.66 22.67 -28.32 22.34 -29 22 C-28.67 21.01 -28.34 20.02 -28 19 Z M-31 21 C-30.01 21.495 -30.01 21.495 -29 22 C-29.33 22.66 -29.66 23.32 -30 24 C-30.33 23.01 -30.66 22.02 -31 21 Z M-33 23 C-32.01 23.495 -32.01 23.495 -31 24 C-31.33 27.63 -31.66 31.26 -32 35 C-32.33 35 -32.66 35 -33 35 C-33 31.04 -33 27.08 -33 23 Z " fill="#0065B1" transform="translate(739,460)"/>
<path d="M0 0 C1.47668858 0.0133035 2.95331108 0.03716415 4.4296875 0.0703125 C5.18378906 0.07933594 5.93789063 0.08835937 6.71484375 0.09765625 C8.57826004 0.1212438 10.44151343 0.15711531 12.3046875 0.1953125 C12.3046875 0.5253125 12.3046875 0.8553125 12.3046875 1.1953125 C8.6746875 1.1953125 5.0446875 1.1953125 1.3046875 1.1953125 C0.9746875 3.8353125 0.6446875 6.4753125 0.3046875 9.1953125 C-1.5703125 9.0703125 -1.5703125 9.0703125 -3.6953125 8.1953125 C-4.9453125 5.1328125 -4.9453125 5.1328125 -5.6953125 2.1953125 C-3.6953125 0.1953125 -3.6953125 0.1953125 0 0 Z " fill="#0060AD" transform="translate(464.6953125,589.8046875)"/>
<path d="M0 0 C0.66 0.66 1.32 1.32 2 2 C1.01 2.99 0.02 3.98 -1 5 C-1 1 -1 1 0 0 Z M-4 3 C-3.34 3.66 -2.68 4.32 -2 5 C-2.66 5.66 -3.32 6.32 -4 7 C-4 5.68 -4 4.36 -4 3 Z M-7 5 C-6.34 5.66 -5.68 6.32 -5 7 C-5.66 7.66 -6.32 8.32 -7 9 C-7 7.68 -7 6.36 -7 5 Z M-10 7 C-9.34 7.66 -8.68 8.32 -8 9 C-8.66 9.66 -9.32 10.32 -10 11 C-10 9.68 -10 8.36 -10 7 Z M-13 9 C-12.34 9.66 -11.68 10.32 -11 11 C-11.66 11.66 -12.32 12.32 -13 13 C-13 11.68 -13 10.36 -13 9 Z M-16 11 C-15.34 11.66 -14.68 12.32 -14 13 C-14.66 13.66 -15.32 14.32 -16 15 C-16.33 14.01 -16.66 13.02 -17 12 C-16.67 11.67 -16.34 11.34 -16 11 Z " fill="#0061AE" transform="translate(834,398)"/>
<path d="M0 0 C0.99 0.495 0.99 0.495 2 1 C1.01 1.495 1.01 1.495 0 2 C0 1.34 0 0.68 0 0 Z M-2 1 C-1.34 1.66 -0.68 2.32 0 3 C-0.66 3.66 -1.32 4.32 -2 5 C-2 3.68 -2 2.36 -2 1 Z M-5 3 C-4.34 3.66 -3.68 4.32 -3 5 C-3.66 5.66 -4.32 6.32 -5 7 C-5 5.68 -5 4.36 -5 3 Z M-8 5 C-7.34 5.66 -6.68 6.32 -6 7 C-6.66 7.66 -7.32 8.32 -8 9 C-8 7.68 -8 6.36 -8 5 Z M-11 7 C-10.34 7.66 -9.68 8.32 -9 9 C-9.66 9.66 -10.32 10.32 -11 11 C-11 9.68 -11 8.36 -11 7 Z M-14 9 C-13.34 9.66 -12.68 10.32 -12 11 C-12.66 11.66 -13.32 12.32 -14 13 C-14.33 12.01 -14.66 11.02 -15 10 C-14.67 9.67 -14.34 9.34 -14 9 Z " fill="#0061AE" transform="translate(786,430)"/>
<path d="M0 0 C2 1 2 1 4 4 C3.70700977 5.67422986 3.37309899 7.34178227 3 9 C3.33 9.99 3.66 10.98 4 12 C3.01 12.33 2.02 12.66 1 13 C0.66666667 11.66666667 0.33333333 10.33333333 0 9 C-0.185625 8.34 -0.37125 7.68 -0.5625 7 C-1 5 -1 5 -1 1 C-0.67 0.67 -0.34 0.34 0 0 Z " fill="#0061AE" transform="translate(464,600)"/>
<path d="M0 0 C0.66 0.33 1.32 0.66 2 1 C1.70703125 3.01822917 1.4140625 5.03645833 1.12109375 7.0546875 C0.8315703 9.08140667 0.8315703 9.08140667 2 11 C1.01 11.33 0.02 11.66 -1 12 C-3.21029412 5.61470588 -3.21029412 5.61470588 -2.1875 2.625 C-1 1 -1 1 0 0 Z " fill="#0061AE" transform="translate(483,687)"/>
<path d="M0 0 C-1.3125 1.9375 -1.3125 1.9375 -4 4 C-7.65582511 4.6575225 -11.29108788 4.87210648 -15 5 C-12.62383533 2.62383533 -10.64650479 1.95931819 -7.5 0.8125 C-6.5203125 0.44769531 -5.540625 0.08289063 -4.53125 -0.29296875 C-2 -1 -2 -1 0 0 Z " fill="#0061AE" transform="translate(652,582)"/>
<path d="M0 0 C0.66 0.33 1.32 0.66 2 1 C1.814375 1.94875 1.62875 2.8975 1.4375 3.875 C0.71313368 6.89868793 0.71313368 6.89868793 2 9 C-0.475 8.01 -0.475 8.01 -3 7 C-2.25 2.25 -2.25 2.25 0 0 Z " fill="#0061AE" transform="translate(477,657)"/>
<path d="M0 0 C0.99 0.33 1.98 0.66 3 1 C2.01 1.495 2.01 1.495 1 2 C1.33 3.65 1.66 5.3 2 7 C1.34 7 0.68 7 0 7 C-0.33 7.66 -0.66 8.32 -1 9 C-1.59732819 6.23735711 -2 3.83967231 -2 1 C-1.34 0.67 -0.68 0.34 0 0 Z " fill="#0061AF" transform="translate(487,712)"/>
<path d="M0 0 C0.99 0.33 1.98 0.66 3 1 C2.01 1.495 2.01 1.495 1 2 C1.33 3.65 1.66 5.3 2 7 C1.34 7 0.68 7 0 7 C-0.33 7.66 -0.66 8.32 -1 9 C-1.59732819 6.23735711 -2 3.83967231 -2 1 C-1.34 0.67 -0.68 0.34 0 0 Z " fill="#0061AF" transform="translate(470,626)"/>
<path d="M0 0 C0.66 0.33 1.32 0.66 2 1 C1.814375 1.61875 1.62875 2.2375 1.4375 2.875 C0.76313824 5.04160178 0.76313824 5.04160178 2 7 C-0.475 6.01 -0.475 6.01 -3 5 C-2.625 3.0625 -2.625 3.0625 -2 1 C-1.34 0.67 -0.68 0.34 0 0 Z " fill="#0061AE" transform="translate(496,755)"/>
<path d="M0 0 C0.66 0.33 1.32 0.66 2 1 C1.814375 1.61875 1.62875 2.2375 1.4375 2.875 C0.76313824 5.04160178 0.76313824 5.04160178 2 7 C-0.475 6.01 -0.475 6.01 -3 5 C-2.625 3.0625 -2.625 3.0625 -2 1 C-1.34 0.67 -0.68 0.34 0 0 Z " fill="#0061AE" transform="translate(494,745)"/>
<path d="M0 0 C0.66 0.33 1.32 0.66 2 1 C1.814375 1.61875 1.62875 2.2375 1.4375 2.875 C0.76313824 5.04160178 0.76313824 5.04160178 2 7 C-0.475 6.01 -0.475 6.01 -3 5 C-2.625 3.0625 -2.625 3.0625 -2 1 C-1.34 0.67 -0.68 0.34 0 0 Z " fill="#0061AE" transform="translate(479,669)"/>
<path d="M0 0 C0.66 0.33 1.32 0.66 2 1 C1.34 2.98 0.68 4.96 0 7 C-0.99 6.01 -1.98 5.02 -3 4 C-2.67 3.01 -2.34 2.02 -2 1 C-1.34 0.67 -0.68 0.34 0 0 Z " fill="#0061AE" transform="translate(498,765)"/>
<path d="M0 0 C0.66 0.33 1.32 0.66 2 1 C1.67 2.65 1.34 4.3 1 6 C-0.32 5.67 -1.64 5.34 -3 5 C-2.625 3.0625 -2.625 3.0625 -2 1 C-1.34 0.67 -0.68 0.34 0 0 Z " fill="#0061AE" transform="translate(481,679)"/>
</svg>
